<svg width="512" height="513" viewBox="0 0 512 513" fill="none" xmlns="http://www.w3.org/2000/svg">
<path fill-rule="evenodd" clip-rule="evenodd" d="M136.666 489.099C131.876 489.031 128.806 486.347 128.739 481.399C128.569 467.097 128.569 452.795 128.739 438.51C128.789 433.917 131.757 431.181 136.245 431.013C143.961 430.707 151.702 431.013 159.373 431.013C143.015 390.905 121.433 352.35 102.405 313.522C100.415 309.47 100.331 306.059 102.354 301.972C147.051 211.63 190.496 120.675 234.745 30.1138C237.056 25.4195 239.722 24.0349 243.77 25.0312C247.076 25.8754 248.814 28.7629 248.814 33.6091C248.814 110.551 248.79 187.494 248.898 264.436C248.915 269.518 247.177 272.575 242.724 274.888C231.573 280.663 225.484 294.492 228.301 306.582C231.338 319.584 242.826 329.395 255.984 329.395C269.125 329.395 280.63 319.584 283.666 306.582C286.5 294.492 280.393 280.663 269.243 274.888C264.789 272.575 263.052 269.519 263.068 264.436C263.178 187.511 263.153 110.585 263.153 33.66C263.153 28.8138 264.873 25.9263 268.197 25.0821C272.246 24.0858 274.911 25.4704 277.222 30.1646C321.472 120.731 364.924 211.687 409.646 302.023C411.671 306.11 411.586 309.521 409.579 313.573C390.591 352.317 368.934 390.99 352.611 431.063C360.278 431.063 368.022 430.759 375.739 431.063C380.226 431.232 383.195 433.968 383.246 438.561C383.414 452.846 383.414 467.148 383.246 481.45C383.195 486.398 380.108 489.082 375.317 489.15C296.101 489.27 216.473 489.099 136.666 489.099Z" fill="#1D1C16"/>
</svg>
