<svg width="400" height="400" viewBox="0 0 400 400" fill="none" xmlns="http://www.w3.org/2000/svg">
<ellipse cx="200" cy="200" rx="85.187" ry="85.6487" transform="rotate(12.6844 200 200)" fill="black"/>
<path fill-rule="evenodd" clip-rule="evenodd" d="M235.442 226.52C237.723 228.845 237.687 232.58 235.362 234.861C225.471 244.564 215.717 249.768 206.275 251.36C196.79 252.959 188.25 250.806 181.029 246.928C166.907 239.343 157.327 224.93 153.364 216.932C151.918 214.014 153.112 210.475 156.031 209.029C158.95 207.583 162.489 208.777 163.935 211.695C167.388 218.665 175.563 230.602 186.61 236.535C191.974 239.416 197.872 240.814 204.313 239.728C210.796 238.635 218.457 234.919 227.101 226.44C229.426 224.158 233.161 224.194 235.442 226.52Z" fill="#F9F9F9"/>
<path fill-rule="evenodd" clip-rule="evenodd" d="M166.448 163.488C168.68 165.03 171.183 166.259 173.699 167.248C178.22 169.027 183.014 169.874 186.877 168.54C189.956 167.476 193.314 169.109 194.378 172.188C195.442 175.267 193.808 178.626 190.729 179.69C182.869 182.405 174.796 180.356 169.38 178.226C166.008 176.9 162.673 175.237 159.692 173.158L159.681 173.151C159.67 173.143 154.61 169.752 158.242 164.932C160.112 162.27 163.784 161.625 166.448 163.488ZM166.448 163.488L166.447 163.487Z" fill="#F9F9F9"/>
<path fill-rule="evenodd" clip-rule="evenodd" d="M255.287 193.27C253.877 198.412 250.402 203.057 244.507 205.217C231.338 210.042 219.737 203.982 215.187 193.994C209.828 182.228 216.074 167.435 227.88 162.411C241.489 159.055 250.98 168.581 254.395 178.013C256.136 182.822 256.652 188.293 255.287 193.27ZM231.596 173.684C224.531 178.578 224.01 184.904 225.923 189.104C227.946 193.545 233.137 196.82 240.448 194.141C242.233 193.487 243.351 192.19 243.91 190.15C244.515 187.946 244.377 184.995 243.303 182.029C241.207 176.241 236.811 172.857 231.596 173.684Z" fill="#F9F9F9"/>
</svg>
