<svg width="73" height="31" viewBox="0 0 73 31" fill="none" xmlns="http://www.w3.org/2000/svg">
<g clip-path="url(#clip0_426_947)">
<path d="M18.4178 29.8347H18.0135C15.1715 29.8347 12.7031 28.7648 10.5961 26.6189C8.48906 24.4729 7.43555 21.9765 7.43555 19.1235C7.43555 16.2704 8.48293 13.8048 10.5716 11.7203C12.6663 9.63588 15.2511 8.59059 18.3259 8.59059C21.4007 8.59059 24.0467 9.82035 26.264 12.2799L12.1886 26.2315C14.1302 27.7933 15.9984 28.5742 17.793 28.5742C19.5877 28.5742 21.1924 28.1622 22.6134 27.3383C24.0344 26.5143 25.2043 25.4076 26.1353 24.0302V26.3237C24.0099 28.6664 21.4435 29.8347 18.4239 29.8347H18.4178ZM17.9461 9.85109C15.5696 9.85109 13.4626 10.7734 11.6251 12.6181C9.78757 14.4627 8.86881 16.584 8.86881 18.9882C8.86881 21.3924 9.65894 23.4891 11.2453 25.2907L24.2917 12.286C22.4358 10.6627 20.3227 9.85724 17.9461 9.85724V9.85109Z" fill="#F9F9F9" stroke="white" stroke-width="1.66" stroke-miterlimit="10"/>
<path d="M37.8287 28.3036V29.5642C35.7033 29.5642 33.8964 28.8509 32.4019 27.4244C30.9074 25.9978 30.1602 24.1778 30.1602 21.9581V0.892292H31.5934V9.08249H37.7797V10.343H31.5934V21.9581C31.5934 23.7904 32.1998 25.303 33.4064 26.502C34.6192 27.7011 36.0892 28.3036 37.8226 28.3036H37.8287Z" fill="#F9F9F9" stroke="white" stroke-width="1.66" stroke-miterlimit="10"/>
<path d="M48.6324 28.3036V29.5642C46.507 29.5642 44.7001 28.8509 43.2056 27.4244C41.7111 25.9978 40.9639 24.1778 40.9639 21.9581V0.892292H42.3971V9.08249H48.5834V10.343H42.3971V21.9581C42.3971 23.7904 43.0035 25.303 44.2101 26.502C45.4229 27.7011 46.8929 28.3036 48.6263 28.3036H48.6324Z" fill="#F9F9F9" stroke="white" stroke-width="1.66" stroke-miterlimit="10"/>
<path d="M72.3494 9.03945V29.2936H70.9161V24.2516C70.077 25.961 68.8213 27.3137 67.1492 28.3036C65.4771 29.2936 63.6824 29.7917 61.7714 29.7917C58.8436 29.7917 56.3324 28.7525 54.2376 26.6619C52.1428 24.5775 51.1016 22.0811 51.1016 19.1665C51.1016 16.252 52.1489 13.7556 54.2376 11.6711C56.3324 9.58669 58.8375 8.5414 61.7714 8.5414C63.6824 8.5414 65.5138 9.05175 67.2656 10.0724C69.0112 11.0931 70.2301 12.4459 70.9222 14.1245V9.03945H72.3555H72.3494ZM52.5348 19.2096C52.5348 21.7306 53.4536 23.9134 55.2911 25.758C57.1286 27.6027 59.3091 28.525 61.8388 28.525C64.3684 28.525 66.5244 27.6027 68.3191 25.758C70.1137 23.9134 71.008 21.7244 71.008 19.185C71.008 16.6455 70.1015 14.4504 68.2946 12.5935C66.4877 10.7304 64.3256 9.8019 61.8143 9.8019C59.303 9.8019 57.1286 10.7427 55.2911 12.6119C53.4536 14.4873 52.5348 16.6824 52.5348 19.2034V19.2096Z" fill="#F9F9F9" stroke="white" stroke-width="1.66" stroke-miterlimit="10"/>
<path d="M2.05762 0.855396V29.3243" stroke="white" stroke-width="1.66" stroke-miterlimit="10"/>
<path d="M2.74435 0.855396H1.36621V29.3243H2.74435V0.855396Z" fill="#F9F9F9" stroke="white" stroke-width="1.66" stroke-miterlimit="10"/>
</g>
<defs>
<clipPath id="clip0_426_947">
<rect width="72" height="30" fill="white" transform="translate(0.857422 0.345047)"/>
</clipPath>
</defs>
</svg>
